<?xml version="1.0" standalone="no"?>
<!DOCTYPE svg PUBLIC "-//W3C//DTD SVG 20010904//EN"
 "http://www.w3.org/TR/2001/REC-SVG-20010904/DTD/svg10.dtd">
<svg version="1.0" xmlns="http://www.w3.org/2000/svg"
 width="793.000000pt" height="807.000000pt" viewBox="0 0 793.000000 807.000000"
 preserveAspectRatio="xMidYMid meet">
<metadata>
Created by potrace 1.16, written by Peter Selinger 2001-2019
</metadata>
<g transform="translate(0.000000,807.000000) scale(0.100000,-0.100000)"
fill="#000000" stroke="none">
<path d="M4760 6065 l0 -145 225 0 225 0 0 145 0 145 -225 0 -225 0 0 -145z
m440 0 l0 -135 -215 0 -215 0 0 135 0 135 215 0 215 0 0 -135z"/>
<path d="M7340 5850 l0 -140 210 0 210 0 0 140 0 140 -210 0 -210 0 0 -140z
m410 0 l0 -130 -200 0 -200 0 0 130 0 130 200 0 200 0 0 -130z"/>
<path d="M2990 5575 l0 -145 195 0 195 0 0 145 0 145 -195 0 -195 0 0 -145z
m380 0 l0 -135 -185 0 -185 0 0 135 0 135 185 0 185 0 0 -135z"/>
<path d="M4830 5290 l0 -140 220 0 220 0 0 140 0 140 -220 0 -220 0 0 -140z
m430 0 l0 -130 -210 0 -210 0 0 130 0 130 210 0 210 0 0 -130z"/>
<path d="M3600 5040 l0 -140 220 0 220 0 0 140 0 140 -220 0 -220 0 0 -140z
m430 0 l0 -130 -210 0 -210 0 0 130 0 130 210 0 210 0 0 -130z"/>
<path d="M5010 4900 l0 -140 270 0 270 0 0 140 0 140 -270 0 -270 0 0 -140z
m530 0 l0 -130 -260 0 -260 0 0 130 0 130 260 0 260 0 0 -130z"/>
<path d="M4900 4550 l0 -140 230 0 230 0 0 140 0 140 -230 0 -230 0 0 -140z
m450 0 l0 -130 -220 0 -220 0 0 130 0 130 220 0 220 0 0 -130z"/>
<path d="M3130 4475 l0 -145 190 0 190 0 0 145 0 145 -190 0 -190 0 0 -145z
m370 0 l0 -135 -180 0 -180 0 0 135 0 135 180 0 180 0 0 -135z"/>
<path d="M5470 4230 l0 -150 275 0 275 0 0 150 0 150 -275 0 -275 0 0 -150z
m540 0 l0 -140 -265 0 -265 0 0 140 0 140 265 0 265 0 0 -140z"/>
<path d="M4370 3735 l0 -145 225 0 225 0 0 145 0 145 -225 0 -225 0 0 -145z
m440 0 l0 -135 -215 0 -215 0 0 135 0 135 215 0 215 0 0 -135z"/>
<path d="M6340 3490 l0 -140 215 0 215 0 0 140 0 140 -215 0 -215 0 0 -140z
m420 0 l0 -130 -205 0 -205 0 0 130 0 130 205 0 205 0 0 -130z"/>
</g>
</svg>
