<?xml version="1.0" standalone="no"?>
<!DOCTYPE svg PUBLIC "-//W3C//DTD SVG 20010904//EN"
 "http://www.w3.org/TR/2001/REC-SVG-20010904/DTD/svg10.dtd">
<svg version="1.0" xmlns="http://www.w3.org/2000/svg"
 width="797.000000pt" height="807.000000pt" viewBox="0 0 797.000000 807.000000"
 preserveAspectRatio="xMidYMid meet">
<metadata>
Created by potrace 1.16, written by Peter Selinger 2001-2019
</metadata>
<g transform="translate(0.000000,807.000000) scale(0.100000,-0.100000)"
fill="#000000" stroke="none">
<path d="M3910 3135 l0 -145 210 0 210 0 0 145 0 145 -210 0 -210 0 0 -145z
m410 0 l0 -135 -200 0 -200 0 0 135 0 135 200 0 200 0 0 -135z"/>
<path d="M4600 2995 l0 -145 215 0 215 0 0 145 0 145 -215 0 -215 0 0 -145z
m420 0 l0 -135 -205 0 -205 0 0 135 0 135 205 0 205 0 0 -135z"/>
<path d="M5920 2845 l0 -145 285 0 285 0 0 145 0 145 -285 0 -285 0 0 -145z
m560 0 l0 -135 -275 0 -275 0 0 135 0 135 275 0 275 0 0 -135z"/>
<path d="M3870 2715 l0 -145 215 0 215 0 0 145 0 145 -215 0 -215 0 0 -145z
m420 0 l0 -135 -205 0 -205 0 0 135 0 135 205 0 205 0 0 -135z"/>
<path d="M4580 2640 l0 -150 275 0 275 0 0 150 0 150 -275 0 -275 0 0 -150z
m540 0 l0 -140 -265 0 -265 0 0 140 0 140 265 0 265 0 0 -140z"/>
<path d="M5490 2460 l0 -140 215 0 215 0 0 140 0 140 -215 0 -215 0 0 -140z
m420 0 l0 -130 -205 0 -205 0 0 130 0 130 205 0 205 0 0 -130z"/>
<path d="M3810 2355 l0 -145 275 0 275 0 0 145 0 145 -275 0 -275 0 0 -145z
m540 0 l0 -135 -265 0 -265 0 0 135 0 135 265 0 265 0 0 -135z"/>
<path d="M4440 2320 l0 -140 275 0 275 0 0 140 0 140 -275 0 -275 0 0 -140z
m540 0 l0 -130 -265 0 -265 0 0 130 0 130 265 0 265 0 0 -130z"/>
<path d="M4970 2005 l0 -145 210 0 210 0 0 145 0 145 -210 0 -210 0 0 -145z
m410 0 l0 -135 -200 0 -200 0 0 135 0 135 200 0 200 0 0 -135z"/>
<path d="M4270 1965 l0 -145 275 0 275 0 0 145 0 145 -275 0 -275 0 0 -145z
m540 0 l0 -135 -265 0 -265 0 0 135 0 135 265 0 265 0 0 -135z"/>
<path d="M5710 1860 l0 -140 230 0 230 0 0 140 0 140 -230 0 -230 0 0 -140z
m450 0 l0 -130 -220 0 -220 0 0 130 0 130 220 0 220 0 0 -130z"/>
<path d="M4540 1615 l0 -145 280 0 280 0 0 145 0 145 -280 0 -280 0 0 -145z
m550 0 l0 -135 -270 0 -270 0 0 135 0 135 270 0 270 0 0 -135z"/>
<path d="M5260 1545 l0 -145 270 0 270 0 0 145 0 145 -270 0 -270 0 0 -145z
m530 0 l0 -135 -260 0 -260 0 0 135 0 135 260 0 260 0 0 -135z"/>
<path d="M4830 1255 l0 -145 195 0 195 0 0 145 0 145 -195 0 -195 0 0 -145z
m380 0 l0 -135 -185 0 -185 0 0 135 0 135 185 0 185 0 0 -135z"/>
<path d="M5390 980 l0 -140 210 0 210 0 0 140 0 140 -210 0 -210 0 0 -140z
m410 0 l0 -130 -200 0 -200 0 0 130 0 130 200 0 200 0 0 -130z"/>
<path d="M7310 410 l0 -140 205 0 205 0 0 140 0 140 -205 0 -205 0 0 -140z
m400 0 l0 -130 -195 0 -195 0 0 130 0 130 195 0 195 0 0 -130z"/>
</g>
</svg>
