<?xml version="1.0" standalone="no"?>
<!DOCTYPE svg PUBLIC "-//W3C//DTD SVG 20010904//EN"
 "http://www.w3.org/TR/2001/REC-SVG-20010904/DTD/svg10.dtd">
<svg version="1.0" xmlns="http://www.w3.org/2000/svg"
 width="793.000000pt" height="807.000000pt" viewBox="0 0 793.000000 807.000000"
 preserveAspectRatio="xMidYMid meet">
<metadata>
Created by potrace 1.16, written by Peter Selinger 2001-2019
</metadata>
<g transform="translate(0.000000,807.000000) scale(0.100000,-0.100000)"
fill="#000000" stroke="none">
<path d="M520 6910 l0 -140 200 0 200 0 0 140 0 140 -200 0 -200 0 0 -140z
m390 0 l0 -130 -190 0 -190 0 0 130 0 130 190 0 190 0 0 -130z"/>
<path d="M600 4120 l0 -150 270 0 270 0 0 150 0 150 -270 0 -270 0 0 -150z
m530 0 l0 -140 -260 0 -260 0 0 140 0 140 260 0 260 0 0 -140z"/>
<path d="M1480 4085 l0 -145 275 0 275 0 0 145 0 145 -275 0 -275 0 0 -145z
m540 0 l0 -135 -265 0 -265 0 0 135 0 135 265 0 265 0 0 -135z"/>
<path d="M2470 3695 l0 -145 210 0 210 0 0 145 0 145 -210 0 -210 0 0 -145z
m410 0 l0 -135 -200 0 -200 0 0 135 0 135 200 0 200 0 0 -135z"/>
<path d="M3110 3560 l0 -130 225 0 225 0 0 130 0 130 -225 0 -225 0 0 -130z
m440 0 l0 -120 -215 0 -215 0 0 120 0 120 215 0 215 0 0 -120z"/>
<path d="M2290 3305 l0 -145 165 0 165 0 0 145 0 145 -165 0 -165 0 0 -145z
m320 0 l0 -135 -155 0 -155 0 0 135 0 135 155 0 155 0 0 -135z"/>
<path d="M2750 3090 l0 -140 230 0 230 0 0 140 0 140 -230 0 -230 0 0 -140z
m450 0 l0 -130 -220 0 -220 0 0 130 0 130 220 0 220 0 0 -130z"/>
<path d="M1970 2565 l0 -145 210 0 210 0 0 145 0 145 -210 0 -210 0 0 -145z
m410 0 l0 -135 -200 0 -200 0 0 135 0 135 200 0 200 0 0 -135z"/>
<path d="M3240 2565 l0 -145 235 0 235 0 0 145 0 145 -235 0 -235 0 0 -145z
m460 0 l0 -135 -225 0 -225 0 0 135 0 135 225 0 225 0 0 -135z"/>
<path d="M2810 2460 l0 -140 150 0 150 0 0 140 0 140 -150 0 -150 0 0 -140z
m290 0 l0 -130 -140 0 -140 0 0 130 0 130 140 0 140 0 0 -130z"/>
<path d="M3600 1860 l0 -140 185 0 185 0 0 140 0 140 -185 0 -185 0 0 -140z
m360 0 l0 -130 -175 0 -175 0 0 130 0 130 175 0 175 0 0 -130z"/>
<path d="M2640 1685 l0 -145 175 0 175 0 0 145 0 145 -175 0 -175 0 0 -145z
m340 0 l0 -135 -165 0 -165 0 0 135 0 135 165 0 165 0 0 -135z"/>
<path d="M1730 1610 l0 -150 200 0 200 0 0 150 0 150 -200 0 -200 0 0 -150z
m390 0 l0 -140 -190 0 -190 0 0 140 0 140 190 0 190 0 0 -140z"/>
<path d="M3500 1475 l0 -145 140 0 140 0 0 145 0 145 -140 0 -140 0 0 -145z
m270 0 l0 -135 -130 0 -130 0 0 135 0 135 130 0 130 0 0 -135z"/>
<path d="M3950 1225 l0 -145 210 0 210 0 0 145 0 145 -210 0 -210 0 0 -145z
m410 0 l0 -135 -200 0 -200 0 0 135 0 135 200 0 200 0 0 -135z"/>
<path d="M800 1190 l0 -140 215 0 215 0 0 140 0 140 -215 0 -215 0 0 -140z
m420 0 l0 -130 -205 0 -205 0 0 130 0 130 205 0 205 0 0 -130z"/>
</g>
</svg>
